<svg width="21" height="21" viewBox="0 0 21 21" fill="none" xmlns="http://www.w3.org/2000/svg">
<g clip-path="url(#clip0_111_987)">
<path d="M6.78966 0C4.43284 0 2.65024 0.795072 1.53966 2.12019C0.429087 3.44531 0 5.19321 0 7.01683C0 11.2698 2.19907 15.933 2.92788 17.3654L1.69111 19.8642C1.5302 20.1071 1.60907 20.4289 1.69111 20.6719C1.85201 20.8328 2.10126 21 2.42308 21H20.1923C20.6782 21 21 20.5962 21 20.1923C21 20.0314 21.0095 19.8736 20.8486 19.7127L18.6022 15.22V6.61298C18.6148 6.52779 18.6148 6.44576 18.6022 6.36058V4.84615C18.6053 4.60637 18.5044 4.37605 18.3277 4.21514C18.1478 4.05424 17.9081 3.98167 17.6683 4.01322C17.2455 4.06055 16.93 4.42022 16.9363 4.84615V5.62861H12.9231V4.84615C12.9231 4.36028 12.6013 4.03846 12.1154 4.03846H12.0649C11.9545 3.27178 11.6611 2.45147 11.0553 1.71635C10.2287 0.716196 8.82151 0 6.78966 0ZM6.78966 1.61538C8.4713 1.61538 9.31055 2.11073 9.81851 2.72596C10.1403 3.11719 10.3296 3.5936 10.4243 4.0637C9.98573 4.09841 9.69231 4.39183 9.69231 4.84615V5.62861H5.67909V4.84615C5.68224 4.60637 5.58128 4.37605 5.4046 4.21514C5.22476 4.05424 4.98498 3.98167 4.74519 4.01322C4.32242 4.06055 4.00691 4.42022 4.01322 4.84615V6.18389C3.95959 6.34796 3.95959 6.52464 4.01322 6.6887V15.22L3.86178 15.4976C2.95628 13.4279 1.61538 9.89108 1.61538 7.01683C1.61538 5.44877 1.98768 4.0921 2.77644 3.15505C3.5652 2.218 4.78305 1.61538 6.78966 1.61538ZM5.67909 7.29447H9.69231V10.5C9.69231 10.9859 10.0141 11.3077 10.5 11.3077V12.1154H12.1154V11.3077C12.6013 11.3077 12.9231 10.9859 12.9231 10.5V7.29447H16.9363V14.5385H5.67909V7.29447Z" fill="#4A85F6"/>
</g>
<defs>
<clipPath id="clip0_111_987">
<rect width="21" height="21" fill="white"/>
</clipPath>
</defs>
</svg>
