<svg width="19" height="19" viewBox="0 0 19 19" fill="none" xmlns="http://www.w3.org/2000/svg">
<path d="M5.09255 0C3.89078 0 2.90024 0.990535 2.90024 2.19231V5.84615H2.19231C0.981971 5.84615 0 6.82812 0 8.03846V12.4231C0 13.6334 0.981971 14.6154 2.19231 14.6154H2.90024V16.8077C2.90024 18.0095 3.89078 19 5.09255 19H13.8618C15.0636 19 16.0541 18.0095 16.0541 16.8077V14.6154H16.8077C18.018 14.6154 19 13.6334 19 12.4231V8.03846C19 6.82812 18.018 5.84615 16.8077 5.84615H16.0541V2.19231C16.0541 0.990535 15.0636 0 13.8618 0H5.09255ZM5.09255 1.46154H13.8618C14.2728 1.46154 14.5925 1.78125 14.5925 2.19231V5.84615H4.36178V2.19231C4.36178 1.78125 4.68149 1.46154 5.09255 1.46154ZM15.7115 7.30769C16.3167 7.30769 16.8077 7.79868 16.8077 8.40385C16.8077 9.00901 16.3167 9.5 15.7115 9.5C15.1064 9.5 14.6154 9.00901 14.6154 8.40385C14.6154 7.79868 15.1064 7.30769 15.7115 7.30769ZM4.36178 10.9615H14.5925V16.8077C14.5925 17.2188 14.2728 17.5385 13.8618 17.5385H5.09255C4.68149 17.5385 4.36178 17.2188 4.36178 16.8077V10.9615ZM5.84615 12.4231V13.8846H13.1538V12.4231H5.84615ZM5.84615 14.6154V16.0769H10.9615V14.6154H5.84615Z" fill="#4A85F6"/>
</svg>
