<svg width="14" height="13" viewBox="0 0 14 13" fill="none" xmlns="http://www.w3.org/2000/svg">
<path d="M5.68498 0.0536549C6.61696 0.0526513 7.53068 0.312151 8.32301 0.802869C9.11534 1.29359 9.75475 1.99599 10.1691 2.83081C10.5834 3.66563 10.7562 4.59964 10.6679 5.52743C10.5796 6.45522 10.2337 7.33987 9.6693 8.08153L12.8346 11.2416C12.9543 11.3614 13.0239 11.5223 13.0292 11.6916C13.0345 11.8609 12.9752 12.0259 12.8634 12.1531C12.7515 12.2802 12.5954 12.36 12.4268 12.3763C12.2582 12.3925 12.0897 12.344 11.9556 12.2405L11.8929 12.1852L8.72628 9.02651C8.09545 9.50856 7.35889 9.83346 6.57755 9.97432C5.79622 10.1152 4.99258 10.068 4.23312 9.83656C3.47366 9.60516 2.78022 9.19624 2.21018 8.64363C1.64014 8.09101 1.2099 7.4106 0.955039 6.65869C0.700182 5.90677 0.628043 5.10498 0.744592 4.31965C0.861141 3.53432 1.16303 2.78804 1.62527 2.14255C2.08751 1.49706 2.69682 0.970924 3.40278 0.607678C4.10874 0.244433 4.89105 0.0545198 5.68498 0.0536549ZM5.68636 1.38699C4.7139 1.388 3.78167 1.77527 3.09475 2.46362C2.40783 3.15196 2.02249 4.08499 2.02349 5.05745C2.0245 6.02991 2.41178 6.96214 3.10012 7.64906C3.78847 8.33598 4.7215 8.72132 5.69396 8.72032C6.66642 8.71931 7.59865 8.33203 8.28557 7.64369C8.97249 6.95534 9.35783 6.02231 9.35682 5.04985C9.35582 4.07739 8.96854 3.14516 8.28019 2.45824C7.59185 1.77132 6.65882 1.38598 5.68636 1.38699Z" fill="#404040"/>
</svg>
