<svg width="19" height="19" viewBox="0 0 19 19" fill="none" xmlns="http://www.w3.org/2000/svg">
<path d="M0.59375 0C0.265475 0 0 0.265475 0 0.59375V5.89183C0 6.13161 0.142729 6.34856 0.365385 6.4399C0.585186 6.53125 0.836388 6.4713 1.00481 6.30288L2.76322 4.54447L5.36659 7.14784C5.5293 7.31055 5.79763 7.31055 5.96034 7.14784L7.14784 5.96034C7.31055 5.80048 7.30769 5.52644 7.14784 5.36659L4.54447 2.76322L6.30288 1.00481C6.41421 0.890625 6.48558 0.747897 6.48558 0.59375C6.48558 0.516676 6.4713 0.439604 6.4399 0.365385C6.34856 0.145583 6.13161 0 5.89183 0H0.59375ZM13.1082 0C12.8684 0 12.6514 0.142729 12.5601 0.365385C12.4688 0.585186 12.5287 0.836388 12.6971 1.00481L14.4555 2.76322L11.8522 5.36659C11.6895 5.5293 11.6895 5.79763 11.8522 5.96034L13.0397 7.14784C13.2024 7.31055 13.4707 7.31055 13.6334 7.14784L16.2368 4.54447L17.9952 6.30288C18.1094 6.41421 18.2521 6.48558 18.4062 6.48558C18.4833 6.48558 18.5604 6.4713 18.6346 6.4399C18.8544 6.34856 19 6.13161 19 5.89183V0.59375C19 0.265475 18.7345 0 18.4062 0H13.1082ZM5.66346 11.738C5.55784 11.738 5.44651 11.7722 5.36659 11.8522L2.76322 14.4555L1.00481 12.6971C0.890625 12.5858 0.747897 12.5144 0.59375 12.5144C0.516676 12.5144 0.439604 12.5287 0.365385 12.5601C0.145583 12.6514 0 12.8684 0 13.1082V18.4062C0 18.7345 0.26833 19 0.59375 19H5.89183C6.13161 19 6.34856 18.8573 6.4399 18.6346C6.53125 18.4148 6.4713 18.1636 6.30288 17.9952L4.54447 16.2368L7.125 13.6334C7.28771 13.4707 7.28771 13.2024 7.125 13.0397L5.96034 11.875C5.88041 11.7951 5.76908 11.738 5.66346 11.738ZM13.3365 11.738C13.2309 11.738 13.1224 11.7722 13.0397 11.8522L11.875 13.0397C11.7123 13.2024 11.6895 13.4707 11.8522 13.6334L14.4555 16.2368L12.6971 17.9952C12.5858 18.1094 12.5144 18.2521 12.5144 18.4062C12.5144 18.4833 12.5287 18.5604 12.5601 18.6346C12.6514 18.8544 12.8684 19 13.1082 19H18.4062C18.7345 19 19 18.7345 19 18.4062V13.1082C19 12.8684 18.8573 12.6514 18.6346 12.5601C18.4148 12.4688 18.1636 12.5287 17.9952 12.6971L16.2368 14.4555L13.6334 11.8522C13.5535 11.7722 13.4422 11.738 13.3365 11.738Z" fill="#4A85F6"/>
</svg>
