<svg width="18" height="19" viewBox="0 0 18 19" fill="none" xmlns="http://www.w3.org/2000/svg">
<path d="M2.88 0C2.48344 0 2.16 0.328275 2.16 0.730769V2.19231H2.52C3.51281 2.19231 4.32 3.01157 4.32 4.01923C4.32 5.02689 3.51281 5.84615 2.52 5.84615H2.16V8.03846H2.52C3.51281 8.03846 4.32 8.85772 4.32 9.86538C4.32 10.873 3.51281 11.6923 2.52 11.6923H2.16V13.8846H2.52C3.51281 13.8846 4.32 14.7039 4.32 15.7115C4.32 16.7192 3.51281 17.5385 2.52 17.5385H2.16V18.2692C2.16 18.6717 2.48344 19 2.88 19H17.28C17.6766 19 18 18.6717 18 18.2692V0.730769C18 0.328275 17.6766 0 17.28 0H2.88ZM1.08 2.92308C0.48375 2.92308 0 3.41406 0 4.01923C0 4.6244 0.48375 5.11538 1.08 5.11538H2.52C3.11625 5.11538 3.6 4.6244 3.6 4.01923C3.6 3.41406 3.11625 2.92308 2.52 2.92308H1.08ZM7.2 2.92308H14.4C14.7966 2.92308 15.12 3.25135 15.12 3.65385V8.76923C15.12 9.17172 14.7966 9.5 14.4 9.5H7.2C6.80344 9.5 6.48 9.17172 6.48 8.76923V3.65385C6.48 3.25135 6.80344 2.92308 7.2 2.92308ZM8.505 4.38462C8.10844 4.42172 7.81594 4.7814 7.8525 5.18389C7.88906 5.58639 8.24344 5.88326 8.64 5.84615H12.96C13.2188 5.84901 13.4606 5.71199 13.5928 5.48362C13.7222 5.25526 13.7222 4.97551 13.5928 4.74715C13.4606 4.51878 13.2188 4.38176 12.96 4.38462H8.64C8.6175 4.38462 8.595 4.38462 8.5725 4.38462C8.55 4.38462 8.5275 4.38462 8.505 4.38462ZM8.505 6.57692C8.10844 6.61403 7.81594 6.97371 7.8525 7.3762C7.88906 7.7787 8.24344 8.07557 8.64 8.03846H12.96C13.2188 8.04132 13.4606 7.9043 13.5928 7.67593C13.7222 7.44757 13.7222 7.16782 13.5928 6.93945C13.4606 6.71109 13.2188 6.57407 12.96 6.57692H8.64C8.6175 6.57692 8.595 6.57692 8.5725 6.57692C8.55 6.57692 8.5275 6.57692 8.505 6.57692ZM1.08 8.76923C0.48375 8.76923 0 9.26022 0 9.86538C0 10.4706 0.48375 10.9615 1.08 10.9615H2.52C3.11625 10.9615 3.6 10.4706 3.6 9.86538C3.6 9.26022 3.11625 8.76923 2.52 8.76923H1.08ZM1.08 14.6154C0.48375 14.6154 0 15.1064 0 15.7115C0 16.3167 0.48375 16.8077 1.08 16.8077H2.52C3.11625 16.8077 3.6 16.3167 3.6 15.7115C3.6 15.1064 3.11625 14.6154 2.52 14.6154H1.08Z" fill="#4A85F6"/>
</svg>
